<?xml version="1.0" encoding="UTF-8" standalone="no"?>
<!-- Created with Inkscape (http://www.inkscape.org/) -->

<svg
   width="500"
   height="500"
   viewBox="0 0 132.29166 132.29167"
   version="1.1"
   id="svg1"
   inkscape:version="1.3.2 (091e20e, 2023-11-25, custom)"
   sodipodi:docname="replay.svg"
   xml:space="preserve"
   xmlns:inkscape="http://www.inkscape.org/namespaces/inkscape"
   xmlns:sodipodi="http://sodipodi.sourceforge.net/DTD/sodipodi-0.dtd"
   xmlns:xlink="http://www.w3.org/1999/xlink"
   xmlns="http://www.w3.org/2000/svg"
   xmlns:svg="http://www.w3.org/2000/svg"><sodipodi:namedview
     id="namedview1"
     pagecolor="#ffffff"
     bordercolor="#999999"
     borderopacity="1"
     inkscape:showpageshadow="2"
     inkscape:pageopacity="0"
     inkscape:pagecheckerboard="0"
     inkscape:deskcolor="#d1d1d1"
     inkscape:document-units="px"
     inkscape:zoom="1.4627806"
     inkscape:cx="407.10138"
     inkscape:cy="238.24489"
     inkscape:window-width="1920"
     inkscape:window-height="1017"
     inkscape:window-x="-8"
     inkscape:window-y="-8"
     inkscape:window-maximized="1"
     inkscape:current-layer="layer6"><sodipodi:guide
       position="0,132.29166"
       orientation="0,500"
       id="guide1"
       inkscape:locked="false" /><sodipodi:guide
       position="132.29166,132.29166"
       orientation="500,0"
       id="guide2"
       inkscape:locked="false" /><sodipodi:guide
       position="132.29166,0"
       orientation="0,-500"
       id="guide3"
       inkscape:locked="false" /><sodipodi:guide
       position="0,0"
       orientation="-500,0"
       id="guide4"
       inkscape:locked="false" /></sodipodi:namedview><defs
     id="defs1"><linearGradient
       id="linearGradient7"
       inkscape:collect="always"><stop
         style="stop-color:#ff59fc;stop-opacity:1;"
         offset="0.21414916"
         id="stop7" /><stop
         style="stop-color:#38abff;stop-opacity:0.49803922;"
         offset="1"
         id="stop9" /></linearGradient><linearGradient
       inkscape:collect="always"
       xlink:href="#linearGradient7"
       id="linearGradient8"
       x1="5.2916641"
       y1="59.810631"
       x2="126.99999"
       y2="59.810631"
       gradientUnits="userSpaceOnUse"
       gradientTransform="translate(-12.585149,-132.48964)" /></defs><g
     inkscape:groupmode="layer"
     id="layer3"
     inkscape:label="Layer 1"
     style="display:inline"><circle
       style="fill:#333333;stroke:#000000;stroke-width:0;stroke-linecap:round;stroke-opacity:1"
       id="path5"
       cx="66.145836"
       cy="66.145836"
       r="66.145836" /></g><g
     inkscape:groupmode="layer"
     id="layer4"
     inkscape:label="Layer 2"
     style="display:inline"><circle
       style="display:inline;fill:#803880;fill-opacity:1;stroke:#000000;stroke-width:0;stroke-linecap:round;stroke-opacity:1"
       id="path6"
       cx="66.145836"
       cy="63.711666"
       r="63.5" /></g><g
     inkscape:groupmode="layer"
     id="layer5"
     inkscape:label="Layer 3"
     style="display:inline"><ellipse
       style="fill:url(#linearGradient8);stroke:#000000;stroke-width:0;stroke-linecap:round;stroke-opacity:1"
       id="path7"
       cx="53.56068"
       cy="-72.678978"
       rx="60.854164"
       ry="59.598965"
       transform="rotate(96.502508)" /></g><g
     inkscape:groupmode="layer"
     id="layer6"
     inkscape:label="Layer 4"
     transform="matrix(1.2945081,-0.29536044,0.30044789,1.0583039,-34.504604,13.904857)"><g
       style="fill:#1a1a1a"
       id="g8"
       transform="matrix(2.294249,0.64029849,-0.65132735,2.8063053,52.91543,15.118675)"><path
         d="M 15.88,13.84 C 14.2,10.36 10.44,8.6 6.84,9.24 L 7.8,7.44 C 8.04,7.04 7.88,6.52 7.48,6.32 7.08,6.08 6.56,6.24 6.36,6.64 L 4.4,10.28 c 0,0 -0.44,0.72 0.24,1.04 l 3.64,1.96 c 0.12,0.08 0.28,0.12 0.4,0.12 0.28,0 0.6,-0.16 0.72,-0.44 0.24,-0.4 0.08,-0.92 -0.32,-1.12 L 7.2,10.8 c 2.84,-0.48 5.8,0.96 7.12,3.68 1.6,3.32 0.2,7.32 -3.12,8.88 -1.6,0.76 -3.4,0.88 -5.08,0.28 -1.68,-0.6 -3.04,-1.8 -3.8,-3.4 C 1.56,18.64 1.44,16.84 2.04,15.16 2.2,14.72 1.96,14.24 1.52,14.08 1.12,14 0.64,14.24 0.48,14.68 c -0.72,2.12 -0.6,4.36 0.36,6.36 0.96,2 2.64,3.52 4.76,4.28 0.92,0.32 1.84,0.48 2.76,0.48 1.24,0 2.48,-0.28 3.6,-0.84 4.16,-2 5.92,-7 3.92,-11.12 z"
         id="path8"
         style="fill:#1a1a1a" /></g></g><g
     inkscape:groupmode="layer"
     id="layer8"
     inkscape:label="Layer 5"
     style="fill:#f9f9f9"
     transform="matrix(1.1315449,-0.01303669,0.01475286,0.99991502,-54.157026,-1.4802146)"><g
       style="fill:#ffffff"
       id="g6"
       transform="matrix(2.7942,0.03643022,-0.04122595,3.1620314,81.70899,16.055325)"><path
         d="M 15.88,13.84 C 14.2,10.36 10.44,8.6 6.84,9.24 L 7.8,7.44 C 8.04,7.04 7.88,6.52 7.48,6.32 7.08,6.08 6.56,6.24 6.36,6.64 L 4.4,10.28 c 0,0 -0.44,0.72 0.24,1.04 l 3.64,1.96 c 0.12,0.08 0.28,0.12 0.4,0.12 0.28,0 0.6,-0.16 0.72,-0.44 0.24,-0.4 0.08,-0.92 -0.32,-1.12 L 7.2,10.8 c 2.84,-0.48 5.8,0.96 7.12,3.68 1.6,3.32 0.2,7.32 -3.12,8.88 -1.6,0.76 -3.4,0.88 -5.08,0.28 -1.68,-0.6 -3.04,-1.8 -3.8,-3.4 C 1.56,18.64 1.44,16.84 2.04,15.16 2.2,14.72 1.96,14.24 1.52,14.08 1.12,14 0.64,14.24 0.48,14.68 c -0.72,2.12 -0.6,4.36 0.36,6.36 0.96,2 2.64,3.52 4.76,4.28 0.92,0.32 1.84,0.48 2.76,0.48 1.24,0 2.48,-0.28 3.6,-0.84 4.16,-2 5.92,-7 3.92,-11.12 z"
         id="path1"
         style="fill:#ffffff" /></g></g></svg>
